# xmcd
#
# Track frame offsets: 
#        150
#        13940
#        24220
#        33927
#        46492
#        59080
#        68652
#        80355
#        89530
#        101542
#        112337
#        124890
#        134575
#        143767
#        153725
#        164110
#        175750
#        188232
#        200180
#        210637
#
# Disc length: 2986 seconds
#
# Revision: 6
# Processed by: cddbd v1.5.2PL0 Copyright (c) Steve Scherf et al.
# Submitted via: ExactAudioCopyFreeDBPlugin 1.0
#
DISCID=2f0ba814
DTITLE=Skeeter Davis - The Essential
DYEAR=1995
DGENRE=Oldies
TTITLE0=I Forgot More Than You'll Ever Know [The Davis Sisters]
TTITLE1=Set Him Free
TTITLE2=Am I That Easy To Forget
TTITLE3=The One You Slip Around With
TTITLE4=(I Can't Help You) I'm Falling Too
TTITLE5=No, Never
TTITLE6=My Last Date (With You)
TTITLE7=Optimistic
TTITLE8=The End Of The World
TTITLE9=Gonna Get Along Without Ya Now
TTITLE10=Where I Ought To Be
TTITLE11=I Can't Stay Mad At You
TTITLE12=I'm Saving My Love
TTITLE13=Silver Threads And Golden Needles
TTITLE14=Mine Is A Lonely Life
TTITLE15=Let Me Get Close To You
TTITLE16=Fuel To The Flame
TTITLE17=What Does It Take (To Keep A Man Like You Satisfied)
TTITLE18=I'm A Lover (Not A Fighter)
TTITLE19=Bus Fare To Kentucky
EXTD=
EXTT0=
EXTT1=
EXTT2=
EXTT3=
EXTT4=
EXTT5=
EXTT6=
EXTT7=
EXTT8=
EXTT9=
EXTT10=
EXTT11=
EXTT12=
EXTT13=
EXTT14=
EXTT15=
EXTT16=
EXTT17=
EXTT18=
EXTT19=
PLAYORDER=
